<?xml version="1.0" encoding="UTF-8" standalone="no"?>
<!-- Created with Inkscape (http://www.inkscape.org/) -->

<svg
   xmlns:dc="http://purl.org/dc/elements/1.1/"
   xmlns:cc="http://creativecommons.org/ns#"
   xmlns:rdf="http://www.w3.org/1999/02/22-rdf-syntax-ns#"
   xmlns:svg="http://www.w3.org/2000/svg"
   xmlns="http://www.w3.org/2000/svg"
   xmlns:xlink="http://www.w3.org/1999/xlink"
   xmlns:sodipodi="http://sodipodi.sourceforge.net/DTD/sodipodi-0.dtd"
   xmlns:inkscape="http://www.inkscape.org/namespaces/inkscape"
   width="64"
   height="64"
   viewBox="0 0 64 63.999998"
   id="svg7605"
   version="1.1"
   inkscape:version="0.91 r13725"
   sodipodi:docname="dbgscript6.svg">
  <defs
     id="defs7607">
    <linearGradient
       inkscape:collect="always"
       id="linearGradient6274">
      <stop
         style="stop-color:#0040ff;stop-opacity:1"
         offset="0"
         id="stop6276" />
      <stop
         style="stop-color:#d6003e;stop-opacity:0"
         offset="1"
         id="stop6278" />
    </linearGradient>
    <linearGradient
       inkscape:collect="always"
       xlink:href="#linearGradient6274"
       id="linearGradient4483-7"
       gradientUnits="userSpaceOnUse"
       gradientTransform="matrix(-0.12447471,0.08932251,-0.11317323,-0.10109678,199.80781,756.9334)"
       x1="606.78864"
       y1="-828.21405"
       x2="234.28505"
       y2="-758.15637" />
  </defs>
  <sodipodi:namedview
     id="base"
     pagecolor="#ffffff"
     bordercolor="#666666"
     borderopacity="1.0"
     inkscape:pageopacity="0.0"
     inkscape:pageshadow="2"
     inkscape:zoom="5.6568542"
     inkscape:cx="47.44295"
     inkscape:cy="46.09092"
     inkscape:document-units="px"
     inkscape:current-layer="layer1"
     showgrid="false"
     inkscape:window-width="1920"
     inkscape:window-height="1017"
     inkscape:window-x="-4"
     inkscape:window-y="-4"
     inkscape:window-maximized="1"
     fit-margin-top="2"
     fit-margin-left="2"
     fit-margin-bottom="2"
     fit-margin-right="2"
     units="px" />
  <metadata
     id="metadata7610">
    <rdf:RDF>
      <cc:Work
         rdf:about="">
        <dc:format>image/svg+xml</dc:format>
        <dc:type
           rdf:resource="http://purl.org/dc/dcmitype/StillImage" />
        <dc:title></dc:title>
      </cc:Work>
    </rdf:RDF>
  </metadata>
  <g
     inkscape:label="Layer 1"
     inkscape:groupmode="layer"
     id="layer1"
     transform="translate(-215.78992,-845.47767)">
    <path
       style="fill:url(#linearGradient4483-7);fill-opacity:1;fill-rule:evenodd;stroke:none;stroke-width:2.88700008;stroke-linecap:round;stroke-linejoin:miter;stroke-miterlimit:4;stroke-dasharray:none;stroke-dashoffset:0;stroke-opacity:1"
       d="m 245.53251,853.92984 c -0.35676,0.0111 -0.64974,0.0965 -0.86712,0.25257 l -26.24332,18.83214 c -1.7391,1.24796 -1.85387,3.4008 -0.25751,4.82682 l 10.47439,9.35656 5.15233,-6.52922 a 8.0399497,8.0399497 0 0 1 -0.18671,-10.18845 8.0399497,8.0399497 0 0 1 6.28964,-3.05919 8.0399497,8.0399497 0 0 1 1.14164,0.0866 l 0,-0.0866 9.38284,0 c 2.29196,0 4.41662,0.59184 6.37434,1.77536 1.92191,1.15033 3.39617,2.68769 4.42279,4.61229 0.8356,1.59277 1.25353,3.23528 1.25353,4.92759 0,2.35597 -0.76993,4.54055 -2.30985,6.55364 -1.52798,2.00203 -3.48577,3.39009 -5.87324,4.16435 -1.26535,0.40925 -2.55447,0.61394 -3.86757,0.61394 l -9.38284,0 0,-6.65473 a 8.0399497,8.0399497 0 0 1 -4.75665,-0.79108 l -5.27692,6.68689 13.26,11.84478 c 1.59636,1.42601 4.2816,1.56946 6.0207,0.3215 l 26.24332,-18.83214 c 1.73909,-1.24797 2.28162,-4.13053 0.25751,-4.82683 0,0 -13.60725,-2.14218 -18.40987,-11.32883 -4.72001,-9.02865 -10.34413,-12.63378 -12.84143,-12.55796 z m 1.86006,18.41884 0,12.79197 1.45046,0 c 2.4949,0 4.36281,-0.76868 5.60429,-2.30614 0.94305,-1.17247 1.4146,-2.5386 1.4146,-4.0982 0,-1.55959 -0.47155,-2.92011 -1.4146,-4.0815 -1.25342,-1.53747 -3.12133,-2.30613 -5.60429,-2.30613 l -1.45046,0 z"
       id="path4481-4"
       inkscape:connector-curvature="0" />
  </g>
</svg>
