<?xml version="1.0" encoding="UTF-8" standalone="no"?>
<!-- Created with Inkscape (http://www.inkscape.org/) -->

<svg
   xmlns:dc="http://purl.org/dc/elements/1.1/"
   xmlns:cc="http://creativecommons.org/ns#"
   xmlns:rdf="http://www.w3.org/1999/02/22-rdf-syntax-ns#"
   xmlns:svg="http://www.w3.org/2000/svg"
   xmlns="http://www.w3.org/2000/svg"
   xmlns:sodipodi="http://sodipodi.sourceforge.net/DTD/sodipodi-0.dtd"
   xmlns:inkscape="http://www.inkscape.org/namespaces/inkscape"
   width="463.40842mm"
   height="99.150612mm"
   viewBox="0 0 1641.9983 351.32106"
   id="svg4181"
   version="1.1"
   inkscape:version="0.91 r13725"
   sodipodi:docname="microsoft-logo.svg">
  <defs
     id="defs4183" />
  <sodipodi:namedview
     id="base"
     pagecolor="#848484"
     bordercolor="#666666"
     borderopacity="1.0"
     inkscape:pageopacity="0"
     inkscape:pageshadow="2"
     inkscape:zoom="0.49497475"
     inkscape:cx="590.16626"
     inkscape:cy="155.38982"
     inkscape:document-units="px"
     inkscape:current-layer="layer1"
     showgrid="true"
     fit-margin-top="0"
     fit-margin-left="0"
     fit-margin-right="0"
     fit-margin-bottom="0"
     inkscape:window-width="1920"
     inkscape:window-height="1018"
     inkscape:window-x="-8"
     inkscape:window-y="-8"
     inkscape:window-maximized="1"
     inkscape:snap-grids="false">
    <inkscape:grid
       type="xygrid"
       id="grid4735"
       dotted="true" />
  </sodipodi:namedview>
  <metadata
     id="metadata4186">
    <rdf:RDF>
      <cc:Work
         rdf:about="">
        <dc:format>image/svg+xml</dc:format>
        <dc:type
           rdf:resource="http://purl.org/dc/dcmitype/StillImage" />
        <dc:title></dc:title>
      </cc:Work>
    </rdf:RDF>
  </metadata>
  <g
     inkscape:label="Layer 1"
     inkscape:groupmode="layer"
     id="layer1"
     transform="translate(369.57059,-162.41595)">
    <path
       style="fill:#ffffff;fill-opacity:1"
       d="m 460.92942,447.14297 c -19.49648,-4.50636 -36.26821,-16.2781 -45.42329,-31.88167 -9.78224,-16.67249 -13.15765,-38.28338 -9.63217,-61.66961 5.31988,-35.28944 26.8146,-58.4281 60.7633,-65.41055 15.74579,-3.23854 41.72862,-1.57421 55.42494,3.55025 l 5.36722,2.00813 0,19.92814 0,19.92815 -2.25,-0.007 c -1.2375,-0.004 -3.60001,-0.93872 -5.25,-2.07802 -6.15267,-4.24828 -16.81691,-8.79039 -23.40127,-9.96708 -13.41434,-2.39728 -27.7558,2.51942 -37.06748,12.70788 -5.54624,6.06846 -7.72227,9.82024 -10.63943,18.34381 -2.74699,8.02633 -2.50102,25.2715 0.47781,33.5 5.80294,16.02962 18.77464,26.44828 35.04686,28.14906 9.24538,0.96633 21.39126,-2.4516 32.51491,-9.14991 3.196,-1.92453 6.89132,-3.49915 8.21182,-3.49915 l 2.4009,0 -0.27206,18.75 -0.27206,18.75 -5.5,2.68538 c -10.13851,4.95012 -16.95593,6.1577 -36.5,6.4653 -12.70169,0.1999 -19.76612,-0.12492 -24,-1.10353 z m 233.8654,0.005 c -21.8244,-4.90903 -38.6853,-17.89266 -47.7382,-36.76062 -5.3012,-11.04838 -7.5798,-20.55583 -8.3387,-34.79193 -2.4197,-45.39413 17.4388,-76.55392 55.2116,-86.63229 9.8843,-2.63729 42.8877,-2.70807 52.5,-0.1126 19.0897,5.15454 34.9108,17.62625 42.8503,33.77874 7.0995,14.44362 8.4668,21.46273 8.4668,43.46615 0,16.38864 -0.2989,20.09952 -2.1745,27 -4.3357,15.9516 -13.1044,30.26613 -24.0047,39.18667 -6.3764,5.21827 -18.7132,11.44201 -27.6379,13.94295 -8.1937,2.29609 -40.345,2.9 -49.1347,0.92293 z m 35.9327,-34.56287 c 17.058,-5.26867 26.8556,-24.13925 25.4161,-48.95248 -1.3177,-22.71421 -11.3084,-37.21442 -28.6778,-41.62211 -14.5951,-3.70366 -30.2604,2.33983 -38.4649,14.83935 -12.2743,18.6997 -10.8368,50.37727 2.9801,65.6709 9.6889,10.72444 24.3119,14.52273 38.7465,10.06434 z m 98.9681,33.92892 c -5.0787,-1.06666 -11.3787,-2.78151 -14,-3.81076 l -4.7661,-1.87137 -0.2707,-20.11823 c -0.3172,-23.57561 -0.8201,-22.83177 10.6525,-15.75848 13.2749,8.18451 31.7243,12.45575 41.9074,9.70197 2.359,-0.63795 5.734,-2.45091 7.5,-4.02879 2.717,-2.42765 3.2108,-3.56349 3.2108,-7.38525 0,-5.98436 -3.4239,-9.55923 -14,-14.61732 -4.4,-2.10433 -13.3819,-6.39973 -19.9597,-9.54534 -14.7815,-7.06868 -22.8248,-14.34639 -26.5083,-23.98503 -2.7502,-7.19656 -3.871,-23.36049 -2.1699,-31.29253 3.7455,-17.46483 19.183,-31.35706 39.6666,-35.69603 13.9132,-2.9472 37.8769,-1.52677 51.6999,3.06448 l 4.7714,1.58481 0,18.91964 0,18.91963 -2.2827,0 c -1.2555,0 -5.2631,-1.58255 -8.9056,-3.51677 -7.1087,-3.77472 -19.8773,-7.48673 -25.7217,-7.47765 -5.8314,0.009 -11.0363,1.9183 -14.9117,5.46983 -3.0325,2.77904 -3.6328,3.99938 -3.6328,7.38403 0,7.61535 2.1212,9.14891 32.5646,23.54285 17.6964,8.36701 26.4582,17.40201 29.5294,30.45026 1.627,6.91242 1.7395,18.23754 0.2518,25.34823 -3.5957,17.18616 -19.13,30.98657 -39.7067,35.27471 -10.5826,2.2054 -33.0955,1.92629 -44.9185,-0.55689 z m 152.2339,0.59573 c -21.548,-4.98615 -38.4557,-17.69551 -47.2459,-35.51433 -6.5729,-13.32402 -8.5887,-23.3631 -8.5337,-42.5 0.048,-16.6006 1.1514,-24.15403 5.2586,-35.99038 6.7978,-19.58992 23.3931,-35.71407 43.2353,-42.00762 10.9818,-3.48322 18.4433,-4.48583 33.44768,-4.49445 26.7681,-0.0154 41.9958,5.45238 56.8602,20.41648 14.0758,14.17026 19.3332,28.38069 20.1914,54.57597 0.8072,24.63934 -2.9143,40.50769 -13.0899,55.814 -8.6709,13.0428 -20.3191,21.72274 -36.6779,27.33148 -9.1898,3.15077 -9.9608,3.24558 -28.4458,3.49789 -13.48568,0.18408 -20.74138,-0.1436 -24.99998,-1.12904 z m 38.95168,-35.38995 c 14.7322,-6.51676 22.5677,-21.82871 22.5335,-44.03435 -0.045,-29.02693 -13.9794,-46.31012 -37.4852,-46.49289 -6.95938,-0.0541 -8.86608,0.34586 -14.65858,3.07502 -12.4388,5.86059 -19.6057,16.36167 -22.557,33.05116 -1.2763,7.21777 -1.3543,10.39435 -0.4386,17.88428 2.4466,20.0145 10.6798,31.76319 26.0337,37.15004 8.21438,2.88202 19.21818,2.61979 26.57218,-0.63327 z m 203.8488,34.79868 c -10.7358,-3.40215 -19.1298,-11.50534 -23.2072,-22.40333 -3.3069,-8.83831 -4.0764,-20.47353 -4.0851,-61.76973 l -0.01,-38.7496 -24,0 -24,0 0,61 0,61 -20.5,0 -20.5,0 0,-61 0,-61 -12,0 -12,0 0,-17 0,-17 11.8445,0 11.8446,0 0.6134,-14.94336 c 0.6851,-16.69056 2.3544,-24.71191 6.9377,-33.33791 6.0174,-11.3251 19.8577,-21.48826 33.7598,-24.79036 6.9855,-1.65924 27.8738,-1.65727 34.75,0.003 l 5.25,1.26784 0,17.90025 0,17.90026 -2.25,-0.0326 c -1.2375,-0.018 -4.725,-0.90329 -7.75,-1.96738 -13.0788,-4.60067 -23.7255,-0.0303 -27.954,12.00001 -0.6766,1.925 -1.4765,8.5625 -1.7776,14.75 l -0.5474,11.25 24.1395,0 24.1395,0 0,-16.80296 0,-16.80297 18.8649,-5.69704 c 10.3757,-3.13337 19.6007,-5.69704 20.5,-5.69704 1.465,0 1.6351,2.3404 1.6351,22.50001 l 0,22.5 15.5714,0 c 12.1619,0 15.8843,0.3128 17,1.42857 1.1034,1.10342 1.4286,4.64762 1.4286,15.57142 0,10.92382 -0.3252,14.46802 -1.4286,15.57143 -1.1157,1.11577 -4.8381,1.42857 -17,1.42857 l -15.5714,0 0,35.95079 c 0,22.36626 0.4156,37.88849 1.0998,41.07884 2.6672,12.43688 13.8924,17.0963 26.1375,10.84929 6.1453,-3.13507 6.7627,-1.77927 6.7627,14.85029 0,17.89692 -0.3691,18.72935 -9.1974,20.7431 -9.9635,2.27269 -30.5227,1.97941 -38.5021,-0.54924 z M 83.429424,338.09581 l 0,-107.5 28.317966,0 28.31796,0 26.85739,67.25 c 14.77156,36.9875 28.27581,71.21636 30.00945,76.06413 l 3.15206,8.81412 4.65819,-12.81412 c 2.562,-7.04777 16.29193,-41.16413 30.51095,-75.81413 l 25.85276,-63 27.16163,-0.26607 27.16163,-0.26607 0,107.51607 0,107.51607 -20.49363,0 -20.49364,0 -0.25636,-74.63094 -0.25637,-74.63095 -30.15713,74.38095 -30.15713,74.38094 -14.38713,0.27555 -14.38714,0.27556 -30.95573,-75.09427 -30.95574,-75.09426 -0.25633,75.06871 -0.25632,75.06871 -19.49368,0 -19.493666,0 z m 260.999996,29.5 0,-78 20.5,0 20.5,0 0,78 0,78 -20.5,0 -20.5,0 z m 205,0 0,-78 20,0 20,0 0,8.057 0,8.057 5.57201,-6.01845 c 3.43118,-3.70607 7.75359,-7.08985 11.25003,-8.807 5.32915,-2.61721 6.47674,-2.78854 18.67805,-2.78854 7.15001,0 13.78751,0.32337 14.75001,0.71861 1.5865,0.65148 1.75,2.63673 1.75,21.25001 l 0,20.53138 -2.2775,0 c -1.2526,0 -3.1712,-0.62595 -4.2634,-1.39102 -2.8337,-1.98476 -12.19201,-4.61072 -16.39061,-4.59921 -8.43494,0.0231 -18.28041,7.55451 -23.60074,18.05368 -4.86516,9.60092 -5.46785,16.38244 -5.46785,61.52452 l 0,41.41203 -20,0 -20,0 z"
       id="path4170"
       inkscape:connector-curvature="0"
       sodipodi:nodetypes="cssssccccsssssssscccssccscssssssssssssssssscssscssssssscccsscssssssssscsssssssssccssscsccccccccccccccccccccssscccccssscccccssscscscscsssssccccccsscsscccccccccccccccccccccccccccccccccccssssscscssscccc" />
    <g
       id="g4772"
       style="fill:#ffffff;fill-opacity:1">
      <rect
         y="162.57504"
         x="-369.58463"
         height="168.94801"
         width="168.94801"
         id="rect4737"
         style="fill:#ffffff;fill-opacity:1" />
      <rect
         y="345.15131"
         x="-369.58463"
         height="168.94801"
         width="168.94801"
         id="rect4737-4"
         style="fill:#ffffff;fill-opacity:1" />
      <rect
         y="162.57504"
         x="-187.29419"
         height="168.94801"
         width="168.94801"
         id="rect4737-2"
         style="fill:#ffffff;fill-opacity:1" />
      <rect
         y="345.15131"
         x="-187.29419"
         height="168.94801"
         width="168.94801"
         id="rect4737-4-8"
         style="fill:#ffffff;fill-opacity:1" />
    </g>
    <circle
       style="fill:#ffffff;fill-opacity:1"
       id="path4778"
       cx="365.46213"
       cy="249.07703"
       r="24.496199" />
  </g>
</svg>
